<svg width="256" height="256" viewBox="0 0 256 256" fill="none" xmlns="http://www.w3.org/2000/svg" role="img" aria-labelledby="title desc">
  <title id="title">sbx icon - low-fi pouch</title>
  <desc id="desc">A low-fi pixel-inspired belt pouch with side terminal badge.</desc>
  <rect width="256" height="256" fill="#F3E8D0"/>
  <g shape-rendering="crispEdges">
    <rect x="36" y="64" width="184" height="20" fill="#5A3825"/>
    <rect x="72" y="48" width="112" height="44" fill="#7A4A2B"/>
    <rect x="88" y="56" width="80" height="20" fill="#A56535"/>
    <rect x="52" y="88" width="152" height="112" fill="#2E3440"/>
    <rect x="68" y="76" width="120" height="28" fill="#3B4252"/>
    <rect x="44" y="112" width="12" height="76" fill="#1F2430"/>
    <rect x="200" y="112" width="12" height="76" fill="#1F2430"/>
    <rect x="64" y="200" width="128" height="16" fill="#1F2430"/>
    <rect x="60" y="112" width="136" height="16" fill="#4C566A"/>
    <rect x="76" y="128" width="104" height="12" fill="#434C5E"/>
    <rect x="132" y="144" width="56" height="44" fill="#88C0D0"/>
    <rect x="140" y="152" width="40" height="28" fill="#111827"/>
    <rect x="148" y="160" width="8" height="8" fill="#E5F7FF"/>
    <rect x="156" y="168" width="8" height="8" fill="#E5F7FF"/>
    <rect x="148" y="176" width="8" height="8" fill="#E5F7FF"/>
    <rect x="164" y="176" width="12" height="8" fill="#E5F7FF"/>
    <rect x="80" y="180" width="12" height="12" fill="#D8DEE9"/>
    <rect x="168" y="188" width="12" height="12" fill="#D8DEE9"/>
  </g>
</svg>
