<svg width="960" height="320" viewBox="0 0 960 320" fill="none" xmlns="http://www.w3.org/2000/svg" role="img" aria-labelledby="title desc">
  <title id="title">sbx logo - low-fi pouch</title>
  <desc id="desc">A low-fi pixel-inspired belt pouch with a side terminal mark and sbx wordmark.</desc>
  <rect width="960" height="320" rx="0" fill="#F3E8D0"/>
  <g shape-rendering="crispEdges">
    <rect x="72" y="256" width="184" height="16" fill="#B79B75"/>
    <rect x="96" y="272" width="136" height="8" fill="#CDB58E"/>
    <rect x="48" y="80" width="240" height="24" fill="#5A3825"/>
    <rect x="88" y="64" width="152" height="48" fill="#7A4A2B"/>
    <rect x="104" y="72" width="120" height="24" fill="#A56535"/>
    <rect x="72" y="104" width="192" height="136" fill="#2E3440"/>
    <rect x="88" y="88" width="160" height="32" fill="#3B4252"/>
    <rect x="88" y="240" width="160" height="16" fill="#1F2430"/>
    <rect x="64" y="128" width="16" height="96" fill="#1F2430"/>
    <rect x="256" y="128" width="16" height="96" fill="#1F2430"/>
    <rect x="80" y="128" width="176" height="16" fill="#4C566A"/>
    <rect x="96" y="144" width="144" height="16" fill="#434C5E"/>
    <rect x="176" y="160" width="72" height="56" fill="#88C0D0"/>
    <rect x="184" y="168" width="56" height="40" fill="#111827"/>
    <rect x="192" y="180" width="8" height="8" fill="#E5F7FF"/>
    <rect x="200" y="188" width="8" height="8" fill="#E5F7FF"/>
    <rect x="192" y="196" width="8" height="8" fill="#E5F7FF"/>
    <rect x="216" y="196" width="16" height="8" fill="#E5F7FF"/>
    <rect x="104" y="216" width="16" height="16" fill="#D8DEE9"/>
    <rect x="216" y="224" width="16" height="16" fill="#D8DEE9"/>
  </g>
  <text x="344" y="164" fill="#2E3440" font-size="112" font-family="ui-monospace, SFMono-Regular, Menlo, Consolas, monospace" font-weight="800" letter-spacing="-10">sbx</text>
  <text x="352" y="210" fill="#5A3825" font-size="28" font-family="ui-monospace, SFMono-Regular, Menlo, Consolas, monospace" font-weight="700">small boxes for dungeon runs</text>
</svg>
